<svg id="Слой_3" data-name="Слой 3" xmlns="http://www.w3.org/2000/svg" viewBox="0 0 382.62 48.04"><defs><style>.cls-1{fill:#cc1236;}</style></defs><path class="cls-1" d="M115,281a8,8,0,0,0-4.11,2.06,8.58,8.58,0,0,0-2.42,3.94H78.69l4.55-4.54V254.4l-4.55-4.55h32.36a6.32,6.32,0,0,0,1.36,2.52,6.46,6.46,0,0,0,2.27,1.69,2.94,2.94,0,0,0-1.69,1.11,3.12,3.12,0,0,0-.68,2v6.62a11.55,11.55,0,0,0-3.53,1,12.31,12.31,0,0,0-3,2.06,12.57,12.57,0,0,0,3.29,2.13,12,12,0,0,0,4,1v8a3,3,0,0,0,.56,1.77A3.34,3.34,0,0,0,115,281Zm-14.9-19.49a4.06,4.06,0,0,0-1-2.8,3.28,3.28,0,0,0-2.54-1.17,2.29,2.29,0,0,0-.77.1v7.79a2.29,2.29,0,0,0,.77.1,3.28,3.28,0,0,0,2.54-1.17A4.12,4.12,0,0,0,100.12,261.51Zm0,13.69a4.12,4.12,0,0,0-1-2.85,3.27,3.27,0,0,0-2.54-1.16,2.49,2.49,0,0,0-.41,0l-.36.07v7.84l.36.07a2.49,2.49,0,0,0,.41,0,3.27,3.27,0,0,0,2.54-1.16A4.12,4.12,0,0,0,100.12,275.2Z" transform="translate(-78.69 -244.2)"/><path class="cls-1" d="M150.14,254.06a3,3,0,0,0-1.75,1.11,3.17,3.17,0,0,0-.67,2v22.59a3,3,0,0,0,.55,1.76,3.44,3.44,0,0,0,1.43,1.19,7.27,7.27,0,0,0-2.42,1.74,7,7,0,0,0-1.5,2.56H120.53a7,7,0,0,0-1.5-2.56,7.27,7.27,0,0,0-2.42-1.74,3.32,3.32,0,0,0,1.41-1.19,3.14,3.14,0,0,0,.53-1.76V257.16a3.18,3.18,0,0,0-.68-2,2.94,2.94,0,0,0-1.69-1.11,6.23,6.23,0,0,0,2.3-1.69,6.65,6.65,0,0,0,1.33-2.52h26.7a6.51,6.51,0,0,0,1.33,2.52A6.15,6.15,0,0,0,150.14,254.06Zm-14.95,5.47a1.87,1.87,0,0,0-.61-1.41,2,2,0,0,0-1.42-.58,2,2,0,0,0-1.43.58,1.91,1.91,0,0,0-.61,1.41v17.65a2.07,2.07,0,0,0,2,2,2.07,2.07,0,0,0,2-2Z" transform="translate(-78.69 -244.2)"/><path class="cls-1" d="M187.72,254.06a2.94,2.94,0,0,0-1.69,1.11,3.18,3.18,0,0,0-.68,2v22.59a3,3,0,0,0,.56,1.76,3.5,3.5,0,0,0,1.38,1.19,7,7,0,0,0-2.4,1.74,7.87,7.87,0,0,0-1.52,2.56H151.3l4.54-4.54V254.4l-4.54-4.55h32.79a6.51,6.51,0,0,0,1.33,2.52A6.23,6.23,0,0,0,187.72,254.06Zm-15.48,5.47a2,2,0,0,0-2-2h-2v21.67h2a1.88,1.88,0,0,0,1.4-.6,2,2,0,0,0,.58-1.43Z" transform="translate(-78.69 -244.2)"/><path class="cls-1" d="M221.58,254.4l-8.46,17.08v11l4.54,4.54H196.48l4.54-4.54V271.33l-7.54-16.93-4.6-4.55h21l-2.61,4.55,2.91,6.77,3.43-6.77L211,249.85h15.14Z" transform="translate(-78.69 -244.2)"/><path class="cls-1" d="M262.65,290.51V289.3l3-3.34V270.51h-7.16v11.95l3,3.33V287H241.85l4.55-4.54V250.55L241.85,246h19.64v1.21l-3,3.33v14h7.16V254.4l-3-3.34v-1.21h19.64l-4.55,4.55V286l4.55,4.55Z" transform="translate(-78.69 -244.2)"/><path class="cls-1" d="M317.11,254v25.79a3,3,0,0,0,.56,1.76,3.44,3.44,0,0,0,1.43,1.19,7.27,7.27,0,0,0-2.42,1.74,7,7,0,0,0-1.5,2.56H289.49a7.87,7.87,0,0,0-1.52-2.56,7.05,7.05,0,0,0-2.39-1.74,3.64,3.64,0,0,0,1.38-1.19,3,3,0,0,0,.55-1.76V254l-4.06-4.11h37.73Zm-12.77,0-2-2.66-2,2.66v23.22a2.07,2.07,0,0,0,2,2,2,2,0,0,0,2-2Z" transform="translate(-78.69 -244.2)"/><path class="cls-1" d="M340.6,287l3.09-3.09-10.57-14.32v12.87l4.55,4.54H322.34l4.55-4.54V254.4l-4.55-4.55h18.74l-3.68,3.73,9.22,13V254.4l-4.55-4.55h15.34l-4.55,4.55v28.06l4.55,4.54Z" transform="translate(-78.69 -244.2)"/><path class="cls-1" d="M380.38,255v27.48l4.55,4.54H363.75l4.54-4.54V255l-9.67,13.84v-19h31.44v19Z" transform="translate(-78.69 -244.2)"/><path class="cls-1" d="M391.27,287l4.55-4.54V254.4l-4.55-4.55H420.1V262l-5.27-5.27H408.1v7.69h7.5v6.73h-7.5v8h7.79l5.22-5.27V287Z" transform="translate(-78.69 -244.2)"/><path class="cls-1" d="M446.61,287l-6.1-12.86c-.26,0-.49,0-.7,0s-.43,0-.65-.07v8.9l4.45,4.06H422.27l4.55-4.54V254.4l-4.55-4.55h31.49a6.65,6.65,0,0,0,1.33,2.52,6.23,6.23,0,0,0,2.3,1.69,3,3,0,0,0-1.74,1.11,3.18,3.18,0,0,0-.68,2v5.17a3,3,0,0,0,.56,1.77,3.12,3.12,0,0,0,1.43,1.14l-3.46,1.52a17.62,17.62,0,0,0-3,1.67l6.87,14.51,4,4.06Zm-3.39-25a4.35,4.35,0,0,0-1.23-3.33,4.19,4.19,0,0,0-3-1.17v8.95a4.19,4.19,0,0,0,3-1.16A4.3,4.3,0,0,0,443.22,262Z" transform="translate(-78.69 -244.2)"/><rect class="cls-1" y="45.04" width="203.6" height="3"/><rect class="cls-1" x="163.16" width="219.46" height="3"/></svg>