<svg width="42" height="40" viewBox="0 0 42 40" fill="none" xmlns="http://www.w3.org/2000/svg">
<path d="M5.25 5H8.75L9.45 8.33333M12.25 21.6667H29.75L36.75 8.33333H9.45M12.25 21.6667L9.45 8.33333M12.25 21.6667L8.23744 25.4882C7.135 26.5381 7.91579 28.3333 9.47487 28.3333H29.75M29.75 28.3333C27.817 28.3333 26.25 29.8257 26.25 31.6667C26.25 33.5076 27.817 35 29.75 35C31.683 35 33.25 33.5076 33.25 31.6667C33.25 29.8257 31.683 28.3333 29.75 28.3333ZM15.75 31.6667C15.75 33.5076 14.183 35 12.25 35C10.317 35 8.75 33.5076 8.75 31.6667C8.75 29.8257 10.317 28.3333 12.25 28.3333C14.183 28.3333 15.75 29.8257 15.75 31.6667Z" stroke="#4B4B4B" stroke-width="2" stroke-linecap="round" stroke-linejoin="round"/>
</svg>
