<svg width="30" height="30" viewBox="0 0 30 30" fill="none" xmlns="http://www.w3.org/2000/svg">
<path d="M15 7.5V5M15 7.5C13.6193 7.5 12.5 8.61929 12.5 10C12.5 11.3807 13.6193 12.5 15 12.5M15 7.5C16.3807 7.5 17.5 8.61929 17.5 10C17.5 11.3807 16.3807 12.5 15 12.5M7.5 22.5C8.88071 22.5 10 21.3807 10 20C10 18.6193 8.88071 17.5 7.5 17.5M7.5 22.5C6.11929 22.5 5 21.3807 5 20C5 18.6193 6.11929 17.5 7.5 17.5M7.5 22.5V25M7.5 17.5V5M15 12.5V25M22.5 22.5C23.8807 22.5 25 21.3807 25 20C25 18.6193 23.8807 17.5 22.5 17.5M22.5 22.5C21.1193 22.5 20 21.3807 20 20C20 18.6193 21.1193 17.5 22.5 17.5M22.5 22.5V25M22.5 17.5V5" stroke="#3D3D3D" stroke-width="2" stroke-linecap="round" stroke-linejoin="round"/>
</svg>
